<svg version="1.1" xmlns="http://www.w3.org/2000/svg" viewBox="0 0 1328.7035565902759 1056" width="1328.7035565902759" height="1056" filter="invert(93%) hue-rotate(180deg)">
  <!-- svg-source:excalidraw -->
  
  <defs>
    <style>
      @font-face {
        font-family: "Virgil";
        src: url("https://excalidraw.com/Virgil.woff2");
      }
      @font-face {
        font-family: "Cascadia";
        src: url("https://excalidraw.com/Cascadia.woff2");
      }
    </style>
  </defs>
  <rect x="0" y="0" width="1328.7035565902759" height="1056" fill="#ffffff"></rect><g stroke-linecap="round" transform="translate(217.70355659027587 10) rotate(0 105 96.5)"><path d="M1.17 -1.2 C77.89 1.82, 153.73 1.25, 210.21 -0.8 M0.87 -0.85 C74.65 -1.57, 149.49 0.11, 209.87 0.22 M211.58 0.24 C209.27 64.88, 210.4 126.5, 209.28 194.63 M209.25 0.4 C210.92 52.58, 210.59 103.54, 210.9 192.85 M210.69 193.97 C162.29 192.74, 117.18 191.72, -0.89 192.1 M210.39 193.22 C129.62 192.6, 49.45 191.67, 0.12 192.99 M-0.07 192.71 C1.33 137.55, 1.52 83.52, -1.86 0.99 M0.14 193.46 C2.3 118.24, 2.04 44.44, -0.53 0.68" stroke="#000000" stroke-width="1" fill="none"></path></g><g transform="translate(269.20355659027587 56.5) rotate(0 53.5 50)"><text x="53.5" y="18" font-family="Virgil, Segoe UI Emoji" font-size="20px" fill="#000000" text-anchor="middle" style="white-space: pre;" direction="ltr">Main Model</text><text x="53.5" y="43" font-family="Virgil, Segoe UI Emoji" font-size="20px" fill="#000000" text-anchor="middle" style="white-space: pre;" direction="ltr">1. list</text><text x="53.5" y="68" font-family="Virgil, Segoe UI Emoji" font-size="20px" fill="#000000" text-anchor="middle" style="white-space: pre;" direction="ltr">2. choice</text><text x="53.5" y="93" font-family="Virgil, Segoe UI Emoji" font-size="20px" fill="#000000" text-anchor="middle" style="white-space: pre;" direction="ltr">3. quitting</text></g><g stroke-linecap="round"><g transform="translate(11.703556590275866 99) rotate(0 92.15981180307921 2.4155464365566104)"><path d="M-0.16 1.01 C30.66 1.57, 155.3 3.96, 186.02 4.33 M-1.7 0.5 C28.95 0.59, 154.23 1.77, 185.61 2.38" stroke="#000000" stroke-width="1" fill="none"></path></g><g transform="translate(11.703556590275866 99) rotate(0 92.15981180307921 2.4155464365566104)"><path d="M158.97 13.96 C168.84 7.02, 178.15 5.53, 186.23 1.69 M158.19 12.71 C165.28 8.62, 173.88 5.69, 185.24 1.6" stroke="#000000" stroke-width="1" fill="none"></path></g><g transform="translate(11.703556590275866 99) rotate(0 92.15981180307921 2.4155464365566104)"><path d="M159.25 -6.56 C169.18 -5.47, 178.38 1.07, 186.23 1.69 M158.47 -7.81 C165.48 -5.88, 174 -2.79, 185.24 1.6" stroke="#000000" stroke-width="1" fill="none"></path></g></g><g transform="translate(76.70355659027587 57) rotate(349.03212781733833 29.5 12.5)"><text x="0" y="18" font-family="Virgil, Segoe UI Emoji" font-size="20px" fill="#000000" text-anchor="start" style="white-space: pre;" direction="ltr">Start</text></g><g stroke-linecap="round" transform="translate(901.7035565902759 293) rotate(0 111.5 117)"><path d="M-0.87 1.5 C51.3 0.2, 100.87 -0.58, 221.3 -1.02 M-0.8 0.01 C83.79 0.86, 166.93 1.37, 223.08 -0.12 M224.21 1.64 C223.34 74.42, 221.35 148.95, 224.58 232.97 M223.37 -0.07 C222.03 62.26, 222.48 124.28, 222.51 234.33 M222.07 233.92 C169.9 235.26, 114.62 234.36, -1.1 232.58 M222.38 234.62 C170.26 233.15, 117.51 233.31, -0.37 234.37 M-1.4 235.29 C1.93 145.65, -0.19 58.09, -1.15 -0.52 M-0.2 233.43 C1.59 170.55, 0.59 107.93, 0.37 -0.77" stroke="#000000" stroke-width="1" fill="none"></path></g><g transform="translate(938.7035565902759 360) rotate(0 74.5 50)"><text x="74.5" y="18" font-family="Virgil, Segoe UI Emoji" font-size="20px" fill="#000000" text-anchor="middle" style="white-space: pre;" direction="ltr">Net List Model</text><text x="74.5" y="43" font-family="Virgil, Segoe UI Emoji" font-size="20px" fill="#000000" text-anchor="middle" style="white-space: pre;" direction="ltr">1. list</text><text x="74.5" y="68" font-family="Virgil, Segoe UI Emoji" font-size="20px" fill="#000000" text-anchor="middle" style="white-space: pre;" direction="ltr">2. choice</text><text x="74.5" y="93" font-family="Virgil, Segoe UI Emoji" font-size="20px" fill="#000000" text-anchor="middle" style="white-space: pre;" direction="ltr">3. quitting</text></g><g stroke-linecap="round" transform="translate(374.70355659027587 265) rotate(0 132.5 143.5)"><path d="M0.41 0.12 C88.07 -1.06, 175.81 0.7, 265.94 0.67 M265.93 0.45 C264.11 82.55, 264 162.92, 266.01 287.36 M266.27 286.16 C203.39 288.28, 139.6 287.48, 1.2 285.62 M1.19 286.98 C-0.62 184.08, -2.49 79.54, -1.34 1.09" stroke="#000000" stroke-width="4.5" fill="none" stroke-dasharray="8 12"></path></g><g transform="translate(401.70355659027587 346) rotate(0 105.5 62.5)"><text x="105.5" y="18" font-family="Virgil, Segoe UI Emoji" font-size="20px" fill="#000000" text-anchor="middle" style="white-space: pre;" direction="ltr">List Of Choices</text><text x="105.5" y="43" font-family="Virgil, Segoe UI Emoji" font-size="20px" fill="#000000" text-anchor="middle" style="white-space: pre;" direction="ltr">1. Net List</text><text x="105.5" y="68" font-family="Virgil, Segoe UI Emoji" font-size="20px" fill="#000000" text-anchor="middle" style="white-space: pre;" direction="ltr">2. Net Connect</text><text x="105.5" y="93" font-family="Virgil, Segoe UI Emoji" font-size="20px" fill="#000000" text-anchor="middle" style="white-space: pre;" direction="ltr">3. Net Connect With </text><text x="105.5" y="118" font-family="Virgil, Segoe UI Emoji" font-size="20px" fill="#000000" text-anchor="middle" style="white-space: pre;" direction="ltr">Password</text></g><g stroke-linecap="round"><g transform="translate(379.70355659027587 121) rotate(0 63.38206780720111 63.47839877145458)"><path d="M-0.16 -0.58 C19.07 1.31, 95.46 -10.64, 115.93 10.98 C136.41 32.6, 121.85 109.52, 122.68 129.16" stroke="#000000" stroke-width="4.5" fill="none" stroke-dasharray="8 12"></path></g><g transform="translate(379.70355659027587 121) rotate(0 63.38206780720111 63.47839877145458)"><path d="M113.39 98.55 C115.44 111.44, 121.94 118.44, 123.97 131.05" stroke="#000000" stroke-width="4.5" fill="none"></path></g><g transform="translate(379.70355659027587 121) rotate(0 63.38206780720111 63.47839877145458)"><path d="M133.87 99.94 C128.85 112.32, 128.28 118.85, 123.97 131.05" stroke="#000000" stroke-width="4.5" fill="none"></path></g></g><g stroke-linecap="round" transform="translate(711.4535565902759 612) rotate(0 111.5 117)"><path d="M1.7 -1.42 C78.52 0.29, 158.98 3.17, 221.69 0.07 M0.7 0.43 C52.9 -0.57, 106.2 -0.34, 222.15 -0.5 M222.3 0.08 C222.03 56.29, 222.99 110.93, 221.37 235.46 M222.19 0.76 C224.76 63.52, 224.33 126.43, 222.5 233.48 M222.5 234.06 C143.79 233.66, 69.27 235.06, 1.34 235.7 M223.08 234.79 C150.09 232.04, 77.67 232.21, -0.15 234.06 M-0.7 234.67 C-1.13 175.6, -2.87 117.5, -0.82 -0.33 M-0.66 233.25 C0.37 144.29, -0.45 55.3, 0.7 0.19" stroke="#000000" stroke-width="1" fill="none"></path></g><g transform="translate(757.9535565902759 666.5) rotate(0 65 62.5)"><text x="65" y="18" font-family="Virgil, Segoe UI Emoji" font-size="20px" fill="#000000" text-anchor="middle" style="white-space: pre;" direction="ltr">Connect</text><text x="65" y="43" font-family="Virgil, Segoe UI Emoji" font-size="20px" fill="#000000" text-anchor="middle" style="white-space: pre;" direction="ltr">- prompt ssid</text><text x="65" y="68" font-family="Virgil, Segoe UI Emoji" font-size="20px" fill="#000000" text-anchor="middle" style="white-space: pre;" direction="ltr"></text><text x="65" y="93" font-family="Virgil, Segoe UI Emoji" font-size="20px" fill="#000000" text-anchor="middle" style="white-space: pre;" direction="ltr">1. Success</text><text x="65" y="118" font-family="Virgil, Segoe UI Emoji" font-size="20px" fill="#000000" text-anchor="middle" style="white-space: pre;" direction="ltr">2. Error</text></g><g stroke-linecap="round" transform="translate(330.20355659027587 714) rotate(0 111.5 117)"><path d="M-0.66 -0.02 C74.67 1.7, 151.08 -0.59, 221.9 -1.4 M0.11 0.73 C85.83 0.31, 170.53 0.38, 223.48 0.1 M223 0.08 C222.2 47.08, 221.47 95.53, 222.9 234.16 M223.78 -0.3 C222.36 61.39, 221.94 124.57, 223.53 233.85 M221.59 235.09 C155.12 234.94, 89.48 234.2, 1.42 234.75 M223.78 233.67 C147.97 234.31, 70.88 234.7, 0.79 233.27 M0.33 233.2 C-0.21 159.87, -0.48 90.26, 1.66 -1.67 M-0.07 234.33 C0.86 186.27, 0.99 138.07, -0.42 -0.82" stroke="#000000" stroke-width="1" fill="none"></path></g><g transform="translate(361.20355659027587 768.5) rotate(0 80.5 62.5)"><text x="80.5" y="18" font-family="Virgil, Segoe UI Emoji" font-size="20px" fill="#000000" text-anchor="middle" style="white-space: pre;" direction="ltr">Connect</text><text x="80.5" y="43" font-family="Virgil, Segoe UI Emoji" font-size="20px" fill="#000000" text-anchor="middle" style="white-space: pre;" direction="ltr">- prompt ssid</text><text x="80.5" y="68" font-family="Virgil, Segoe UI Emoji" font-size="20px" fill="#000000" text-anchor="middle" style="white-space: pre;" direction="ltr">- prompt passwd</text><text x="80.5" y="93" font-family="Virgil, Segoe UI Emoji" font-size="20px" fill="#000000" text-anchor="middle" style="white-space: pre;" direction="ltr">1. Success</text><text x="80.5" y="118" font-family="Virgil, Segoe UI Emoji" font-size="20px" fill="#000000" text-anchor="middle" style="white-space: pre;" direction="ltr">2. Error</text></g><g stroke-linecap="round"><g transform="translate(656.7035565902759 397) rotate(0 111.87029029116036 7.282644601017239)"><path d="M0.28 2.57 C37.39 4.38, 184.6 7.78, 221.63 9.28 M-3.01 1.5 C35.04 3.96, 189.61 12.07, 226.75 13.07" stroke="#000000" stroke-width="4" fill="none"></path></g><g transform="translate(656.7035565902759 397) rotate(0 111.87029029116036 7.282644601017239)"><path d="M201.82 18.75 C206.21 17.47, 217.09 18.07, 224.84 9.99 M200.12 20.16 C202.37 19.2, 210.66 17.72, 227.52 13.78" stroke="#000000" stroke-width="4" fill="none"></path></g><g transform="translate(656.7035565902759 397) rotate(0 111.87029029116036 7.282644601017239)"><path d="M202.68 -1.75 C206.61 2.39, 217.26 8.4, 224.84 9.99 M200.99 -0.35 C202.68 2.98, 210.79 5.75, 227.52 13.78" stroke="#000000" stroke-width="4" fill="none"></path></g></g><g stroke-linecap="round"><g transform="translate(657.7035565902759 486) rotate(0 70.19573075518008 55.11928329959511)"><path d="M-0.43 0.93 C22.73 18.81, 115.94 89.7, 139.12 108.12 M-4.11 -1.03 C19.93 17.17, 119.78 93.22, 144.5 111.27" stroke="#000000" stroke-width="4" fill="none"></path></g><g transform="translate(657.7035565902759 486) rotate(0 70.19573075518008 55.11928329959511)"><path d="M117.11 99.9 C123.35 101.96, 136.89 109.68, 147.27 114.12 M114.96 102.23 C122.82 105.38, 129.87 104.1, 144.23 109.82" stroke="#000000" stroke-width="4" fill="none"></path></g><g transform="translate(657.7035565902759 486) rotate(0 70.19573075518008 55.11928329959511)"><path d="M129.41 83.47 C131.99 90.52, 141.77 103.26, 147.27 114.12 M127.25 85.8 C132.52 92.61, 136.91 94.88, 144.23 109.82" stroke="#000000" stroke-width="4" fill="none"></path></g></g><g stroke-linecap="round"><g transform="translate(536.7035565902759 571) rotate(0 -30.71341807916758 64.08219729140404)"><path d="M-0.79 -1.8 C-11.23 20.09, -53.13 107.97, -63.81 129.96 M3.98 3.39 C-6.62 24.54, -53.64 105.16, -65.41 125.48" stroke="#000000" stroke-width="4" fill="none"></path></g><g transform="translate(536.7035565902759 571) rotate(0 -30.71341807916758 64.08219729140404)"><path d="M-62.71 97.64 C-60.42 103.71, -61.45 114.43, -63.7 124.73 M-58.61 97.19 C-62.72 105.6, -63.18 112.64, -65.58 127.05" stroke="#000000" stroke-width="4" fill="none"></path></g><g transform="translate(536.7035565902759 571) rotate(0 -30.71341807916758 64.08219729140404)"><path d="M-44.96 107.93 C-47.16 111.24, -52.79 119.29, -63.7 124.73 M-40.86 107.49 C-50.48 112.77, -56.46 116.61, -65.58 127.05" stroke="#000000" stroke-width="4" fill="none"></path></g></g><g stroke-linecap="round" transform="translate(1146.7035565902759 897) rotate(0 86 74.5)"><path d="M83.03 -3.68 C119.36 25.42, 142.85 55.62, 175.81 78.96 M86.1 0.2 C120.47 28.32, 149.59 56.28, 171.57 75.99 M168.63 74.61 C147.43 100.65, 115.08 124.33, 87.92 150.52 M170.45 75.62 C152.88 94.39, 131.16 112.68, 86.38 149.73 M83.58 148.67 C47.79 122.14, 13.67 91.81, 1.36 72.2 M86.78 150.63 C67.7 135.12, 48.39 118.72, -0.24 73.54 M2.18 71.5 C27.09 46.77, 58.8 26.53, 90.97 0.54 M1.58 74.55 C28.58 49.65, 57 27.32, 86.58 0.3" stroke="#000000" stroke-width="4" fill="none"></path></g><g transform="translate(1214.7035565902759 959) rotate(0 18 12.5)"><text x="18" y="18" font-family="Virgil, Segoe UI Emoji" font-size="20px" fill="#000000" text-anchor="middle" style="white-space: pre;" direction="ltr">End</text></g><g stroke-linecap="round"><g transform="translate(1083.7035565902759 543) rotate(0 61.07341908901924 175.109548407048)"><path d="M-2.45 -1.29 C17.26 57.04, 98.78 292.5, 119.53 351.51 M1.42 4.19 C21.85 61.56, 104.78 289.88, 124.6 347.31" stroke="#000000" stroke-width="4" fill="none"></path></g><g transform="translate(1083.7035565902759 543) rotate(0 61.07341908901924 175.109548407048)"><path d="M103.65 320.66 C114.52 332.67, 122.96 341.1, 126.16 349.09 M105.23 322.87 C108.7 331.14, 113.83 334.73, 126.51 348.28" stroke="#000000" stroke-width="4" fill="none"></path></g><g transform="translate(1083.7035565902759 543) rotate(0 61.07341908901924 175.109548407048)"><path d="M122.99 313.79 C127.22 327.84, 128.96 338.66, 126.16 349.09 M124.57 316 C123.9 325.7, 124.78 330.8, 126.51 348.28" stroke="#000000" stroke-width="4" fill="none"></path></g></g><g stroke-linecap="round"><g transform="translate(945.7035565902759 854) rotate(0 101.37680127114061 45.652358541786725)"><path d="M1.71 -1.77 C35.52 13.34, 169.95 74.35, 203.56 90.34 M-0.81 3.45 C32.72 18.91, 168.32 78.67, 202.17 93.07" stroke="#000000" stroke-width="4" fill="none"></path></g><g transform="translate(945.7035565902759 854) rotate(0 101.37680127114061 45.652358541786725)"><path d="M169.7 93.47 C179.55 93.4, 194.73 88.98, 204.24 93.61 M173.49 91.98 C183.79 92.79, 193.59 91.12, 203.35 91.51" stroke="#000000" stroke-width="4" fill="none"></path></g><g transform="translate(945.7035565902759 854) rotate(0 101.37680127114061 45.652358541786725)"><path d="M177.88 74.65 C185.05 80.78, 197.57 82.46, 204.24 93.61 M181.67 73.16 C188.43 81.37, 195.05 87.03, 203.35 91.51" stroke="#000000" stroke-width="4" fill="none"></path></g></g><g stroke-linecap="round"><g transform="translate(564.7035565902759 956) rotate(0 293.426689916104 21.21840516820555)"><path d="M-0.67 -1.96 C97.61 5.44, 489.13 34.71, 587.52 42.25 M4.16 3.15 C102.32 10.97, 488.04 37.34, 585.57 44.39" stroke="#000000" stroke-width="4" fill="none"></path></g><g transform="translate(564.7035565902759 956) rotate(0 293.426689916104 21.21840516820555)"><path d="M553.93 53.4 C559.34 54.77, 567.26 51.56, 581.98 47.37 M555.83 51.82 C564.87 48.25, 577.84 45.06, 586.31 43.04" stroke="#000000" stroke-width="4" fill="none"></path></g><g transform="translate(564.7035565902759 956) rotate(0 293.426689916104 21.21840516820555)"><path d="M555.37 32.93 C560.15 38.84, 567.75 40.19, 581.98 47.37 M557.27 31.35 C566.17 35.09, 578.62 39.2, 586.31 43.04" stroke="#000000" stroke-width="4" fill="none"></path></g></g></svg>